<svg xmlns="http://www.w3.org/2000/svg" viewBox="0 0 1000 520" preserveAspectRatio="none"><defs><filter id="grain"><feTurbulence type="fractalNoise" baseFrequency=".65" numOctaves="3" seed="9" result="noise"/><feColorMatrix in="noise" type="saturate" values="0" result="mono"/><feComponentTransfer in="mono"><feFuncA type="linear" slope=".17"/></feComponentTransfer><feBlend in="SourceGraphic" mode="multiply"/></filter><linearGradient id="age" x2=".8" y2="1"><stop stop-color="#fff" stop-opacity=".13"/><stop offset=".5" stop-color="#543b1d" stop-opacity="0"/><stop offset="1" stop-color="#543b1d" stop-opacity=".13"/></linearGradient><mask id="edge"><polygon points="0,5 12,6 24,4 36,4 48,3 60,3 72,8 84,7 96,2 108,4 120,6 132,5 144,6 156,2 168,4 180,6 192,6 204,7 216,2 228,7 240,5 252,3 264,7 276,5 288,7 300,5 312,3 324,3 336,3 348,2 360,2 372,3 384,6 396,8 408,6 420,2 432,8 444,7 456,5 468,8 480,7 492,2 504,4 516,3 528,7 540,3 552,7 564,8 576,5 588,2 600,8 612,4 624,3 636,5 648,4 660,4 672,8 684,2 696,3 708,7 720,2 732,5 744,2 756,5 768,8 780,5 792,3 804,2 816,3 828,5 840,7 852,8 864,2 876,6 888,2 900,2 912,8 924,6 936,3 948,8 960,3 972,4 984,2 996,2 997,12 994,24 998,36 994,48 998,60 994,72 995,84 994,96 997,108 995,120 998,132 995,144 997,156 998,168 994,180 997,192 997,204 994,216 998,228 998,240 996,252 994,264 994,276 997,288 996,300 994,312 998,324 998,336 995,348 997,360 997,372 994,384 994,396 998,408 996,420 994,432 994,444 994,456 998,468 996,480 998,492 994,504 996,516 1000,515 988,517 976,515 964,517 952,514 940,513 928,518 916,515 904,512 892,514 880,516 868,518 856,515 844,518 832,517 820,517 808,515 796,516 784,516 772,512 760,518 748,516 736,513 724,516 712,518 700,514 688,512 676,518 664,518 652,515 640,512 628,514 616,512 604,515 592,515 580,516 568,513 556,512 544,517 532,514 520,513 508,518 496,515 484,513 472,517 460,518 448,512 436,515 424,514 412,516 400,512 388,514 376,516 364,517 352,513 340,516 328,517 316,513 304,512 292,516 280,518 268,518 256,512 244,517 232,516 220,517 208,518 196,514 184,517 172,518 160,518 148,518 136,515 124,517 112,512 100,515 88,516 76,514 64,518 52,512 40,516 28,516 16,517 4,515 6,520 4,508 3,496 2,484 6,472 4,460 2,448 2,436 5,424 5,412 3,400 6,388 5,376 6,364 3,352 4,340 6,328 6,316 5,304 4,292 2,280 2,268 4,256 6,244 3,232 3,220 2,208 3,196 3,184 2,172 3,160 3,148 5,136 5,124 6,112 6,100 6,88 5,76 2,64 3,52 6,40 5,28 6,16 4,4" fill="white"/><circle cx="11" cy="70" r="12" fill="black"/><circle cx="11" cy="128" r="12" fill="black"/><circle cx="11" cy="186" r="12" fill="black"/><circle cx="11" cy="244" r="12" fill="black"/><circle cx="11" cy="302" r="12" fill="black"/><circle cx="11" cy="360" r="12" fill="black"/><circle cx="11" cy="418" r="12" fill="black"/><circle cx="11" cy="476" r="12" fill="black"/></mask></defs><g mask="url(#edge)"><rect width="1000" height="520" fill="#eee4d0" filter="url(#grain)"/><rect width="1000" height="520" fill="url(#age)"/><g stroke="#55778b" opacity=".22" stroke-width="1.5"><path d="M0 67H1000"/><path d="M0 115H1000"/><path d="M0 163H1000"/><path d="M0 211H1000"/><path d="M0 259H1000"/><path d="M0 307H1000"/><path d="M0 355H1000"/><path d="M0 403H1000"/><path d="M0 451H1000"/><path d="M0 499H1000"/></g><path d="M520.0 0v520" stroke="#fff" opacity=".22" stroke-width="3"/><path d="M522.0 0v520" stroke="#6b5130" opacity=".11" stroke-width="2"/></g></svg>