<svg xmlns="http://www.w3.org/2000/svg" viewBox="0 0 1200 300"><defs><filter id="p"><feTurbulence type="fractalNoise" baseFrequency=".022 .15" numOctaves="4" seed="18" result="n"/><feBlend in="SourceGraphic" in2="n" mode="multiply"/><feTurbulence type="fractalNoise" baseFrequency=".6" numOctaves="2" seed="4" result="g"/><feBlend in="SourceGraphic" in2="g" mode="soft-light"/></filter><mask id="m"><rect width="1200" height="300" fill="black"/><path fill="white" d="M14 26l52-15 48 9 58-14 54 10 62-12 58 11 63-15 64 14 57-12 63 13 60-15 65 14 61-11 64 10 63-13 64 12 61-11 55 13 50-8 43 13 37-5 23 22-8 33 10 34-8 36 9 35-7 38 9 35-7 34 7 34-9 29-33 7-50-10-56 11-59-10-62 9-65-11-61 10-63-9-64 10-59-10-62 9-62-10-60 11-60-9-57 8-54-10-51 9-49-9-42 8-32-9-25 4-20-21 9-34-10-38 9-37-8-36 8-36-9-36 8-36-9-35 8-35-9-31z"/></mask></defs><g mask="url(#m)"><rect width="1200" height="300" fill="#c59f66" filter="url(#p)"/><path d="M35 61c228 36 420-33 640 2s333 20 484-4" fill="none" stroke="#72502e" opacity=".12" stroke-width="10"/></g></svg>